<svg width="60" height="60" viewBox="0 0 60 60" fill="none" xmlns="http://www.w3.org/2000/svg">
<path d="M32.7433 59.1668H27.2308C25.9312 59.1668 24.6849 58.6506 23.766 57.7317C22.847 56.8127 22.3308 55.5664 22.3308 54.2668V51.0877C22.315 50.9004 22.2463 50.7214 22.1327 50.5717C22.0191 50.4219 21.8653 50.3075 21.6891 50.2418C21.5107 50.1275 21.3032 50.0667 21.0912 50.0667C20.8793 50.0667 20.6718 50.1275 20.4933 50.2418L18.335 52.5752C17.8822 53.0311 17.3438 53.3929 16.7506 53.6399C16.1574 53.8868 15.5212 54.0139 14.8787 54.0139C14.2362 54.0139 13.6 53.8868 13.0068 53.6399C12.4137 53.3929 11.8752 53.0311 11.4225 52.5752L7.42663 48.6668C6.9641 48.215 6.59676 47.6751 6.34629 47.079C6.09582 46.4828 5.9673 45.8426 5.96829 45.196C5.97017 43.8734 6.49429 42.605 7.42663 41.6668L9.58496 39.5085C9.68916 39.3478 9.74461 39.1604 9.74461 38.9689C9.74461 38.7774 9.68916 38.59 9.58496 38.4293C9.40996 37.9918 9.11829 37.671 8.70996 37.671H5.73496C4.43273 37.6633 3.18645 37.1406 2.26835 36.217C1.35025 35.2934 0.834938 34.0441 0.834961 32.7418V27.2293C0.834961 25.9298 1.35121 24.6834 2.27014 23.7645C3.18907 22.8456 4.4354 22.3293 5.73496 22.3293H8.91413C9.10143 22.3135 9.28039 22.2448 9.43015 22.1312C9.5799 22.0176 9.69428 21.8638 9.75996 21.6877C9.8743 21.5092 9.93508 21.3017 9.93508 21.0897C9.93508 20.8778 9.8743 20.6703 9.75996 20.4918L7.42663 18.3335C6.97071 17.8808 6.60887 17.3423 6.36194 16.7491C6.11502 16.1559 5.9879 15.5198 5.9879 14.8772C5.9879 14.2347 6.11502 13.5986 6.36194 13.0054C6.60887 12.4122 6.97071 11.8737 7.42663 11.421L11.335 7.42516C11.7824 6.96483 12.3174 6.59866 12.9084 6.3482C13.4995 6.09775 14.1347 5.96808 14.7766 5.96683C15.4365 5.96393 16.0905 6.09126 16.7011 6.3415C17.3117 6.59175 17.8669 6.96 18.335 7.42516L20.4933 9.5835C20.654 9.6877 20.8414 9.74315 21.0329 9.74315C21.2244 9.74315 21.4118 9.6877 21.5725 9.5835C22.01 9.4085 22.3308 9.11683 22.3308 8.7085V5.7335C22.3385 4.43126 22.8612 3.18499 23.7848 2.26689C24.7084 1.34879 25.9577 0.833473 27.26 0.833496H32.9183C34.2179 0.833496 35.4642 1.34974 36.3831 2.26867C37.3021 3.1876 37.8183 4.43394 37.8183 5.7335V8.91266C37.8341 9.09997 37.9028 9.27893 38.0164 9.42868C38.13 9.57844 38.2838 9.69282 38.46 9.7585C38.6384 9.87284 38.8459 9.93361 39.0579 9.93361C39.2698 9.93361 39.4773 9.87284 39.6558 9.7585L41.6683 7.42516C42.121 6.96924 42.6595 6.6074 43.2527 6.36048C43.8459 6.11356 44.482 5.98644 45.1245 5.98644C45.7671 5.98644 46.4032 6.11356 46.9964 6.36048C47.5896 6.6074 48.1281 6.96924 48.5808 7.42516L52.5766 11.3335C53.0378 11.7863 53.4043 12.3264 53.6547 12.9223C53.9051 13.5182 54.0343 14.158 54.035 14.8043C54.049 15.4614 53.9267 16.1143 53.6757 16.7218C53.4247 17.3292 53.0505 17.878 52.5766 18.3335L50.4183 20.4918C50.3141 20.6525 50.2586 20.8399 50.2586 21.0314C50.2586 21.2229 50.3141 21.4103 50.4183 21.571C50.5933 22.0085 50.885 22.3293 51.2933 22.3293H54.4725C55.7389 22.3893 56.9335 22.935 57.808 23.853C58.6826 24.771 59.1697 25.9906 59.1683 27.2585V32.9168C59.1683 34.2164 58.6521 35.4627 57.7331 36.3817C56.8142 37.3006 55.5679 37.8168 54.2683 37.8168H51.0891C50.9018 37.8326 50.7229 37.9013 50.5731 38.0149C50.4234 38.1285 50.309 38.2824 50.2433 38.4585C50.1391 38.6192 50.0837 38.8066 50.0837 38.9981C50.0837 39.1896 50.1391 39.377 50.2433 39.5377L52.4891 41.7835C52.945 42.2362 53.3069 42.7747 53.5538 43.3679C53.8007 43.9611 53.9279 44.5972 53.9279 45.2398C53.9279 45.8823 53.8007 46.5184 53.5538 47.1116C53.3069 47.7048 52.945 48.2433 52.4891 48.696L48.6683 52.5752C48.2209 53.0355 47.6859 53.4017 47.0948 53.6521C46.5038 53.9026 45.8686 54.0322 45.2266 54.0335C43.9242 54.0164 42.6796 53.4934 41.7558 52.5752L39.51 50.4168C39.3493 50.3126 39.1619 50.2572 38.9704 50.2572C38.7789 50.2572 38.5915 50.3126 38.4308 50.4168C37.9933 50.5918 37.6725 50.8835 37.6725 51.2918V54.471C37.6124 55.7374 37.0667 56.932 36.1488 57.8066C35.2308 58.6811 34.0112 59.1683 32.7433 59.1668ZM28.1641 53.3335H31.8391V51.0877C31.8516 49.7427 32.2628 48.4316 33.0209 47.3205C33.7789 46.2094 34.8497 45.3482 36.0975 44.846C37.3504 44.2983 38.738 44.1362 40.0834 44.3804C41.4288 44.6245 42.671 45.2639 43.6516 46.2168L45.2266 47.7918L47.7933 45.2252L46.2183 43.621C45.2713 42.6552 44.6327 41.4299 44.3834 40.1005C44.1342 38.771 44.2855 37.3976 44.8183 36.1543C45.325 34.912 46.1881 33.8474 47.2989 33.0948C48.4096 32.3422 49.7183 31.9352 51.06 31.9252H53.335V28.1627H51.0891C49.7441 28.1502 48.433 27.739 47.3219 26.9809C46.2108 26.2229 45.3496 25.1521 44.8475 23.9043C44.2998 22.6514 44.1377 21.2638 44.3819 19.9184C44.626 18.573 45.2653 17.3308 46.2183 16.3502L47.7933 14.7752L45.2266 12.2085L43.6225 13.7835C42.6417 14.6794 41.4253 15.2764 40.1166 15.5042C38.8079 15.732 37.4613 15.5811 36.2355 15.0693C35.0097 14.5575 33.9556 13.7062 33.1974 12.6154C32.4392 11.5247 32.0084 10.24 31.9558 8.91266V6.66683H28.1641V8.91266C28.1517 10.2577 27.7404 11.5688 26.9824 12.6799C26.2243 13.791 25.1536 14.6522 23.9058 15.1543C22.6529 15.702 21.2652 15.8641 19.9198 15.6199C18.5744 15.3758 17.3322 14.7365 16.3516 13.7835L14.7766 12.2085L12.21 14.7752L13.785 16.3793C14.6809 17.3601 15.2779 18.5765 15.5057 19.8852C15.7335 21.1939 15.5826 22.5405 15.0708 23.7663C14.559 24.9921 13.7076 26.0462 12.6169 26.8044C11.5261 27.5626 10.2415 27.9934 8.91413 28.046H6.66829V31.721H8.91413C10.2591 31.7334 11.5702 32.1447 12.6813 32.9027C13.7924 33.6608 14.6536 34.7315 15.1558 35.9793C15.7035 37.2322 15.8656 38.6199 15.6214 39.9653C15.3773 41.3107 14.7379 42.5529 13.785 43.5335L12.21 45.1085L14.7766 47.6752L16.3808 46.1002C17.3616 45.2043 18.578 44.6073 19.8867 44.3795C21.1954 44.1517 22.5419 44.3025 23.7678 44.8143C24.9936 45.3261 26.0477 46.1775 26.8059 47.2682C27.5641 48.359 27.9949 49.6437 28.0475 50.971L28.1641 53.3335Z" fill="url(#paint0_linear_67_12814)"/>
<path d="M30.0013 40.2084C27.9823 40.2084 26.0086 39.6097 24.3299 38.488C22.6511 37.3663 21.3427 35.772 20.57 33.9066C19.7974 32.0413 19.5952 29.9888 19.9891 28.0085C20.383 26.0283 21.3553 24.2094 22.7829 22.7817C24.2106 21.354 26.0295 20.3818 28.0098 19.9879C29.99 19.594 32.0425 19.7962 33.9079 20.5688C35.7732 21.3415 37.3675 22.6499 38.4892 24.3286C39.6109 26.0074 40.2096 27.9811 40.2096 30.0001C40.2096 32.7075 39.1341 35.304 37.2197 37.2185C35.3053 39.1329 32.7087 40.2084 30.0013 40.2084ZM30.0013 25.6251C29.136 25.6251 28.2902 25.8817 27.5707 26.3624C26.8512 26.8431 26.2905 27.5264 25.9593 28.3258C25.6282 29.1253 25.5416 30.0049 25.7104 30.8536C25.8792 31.7023 26.2959 32.4818 26.9077 33.0937C27.5196 33.7055 28.2991 34.1222 29.1478 34.291C29.9965 34.4598 30.8761 34.3732 31.6755 34.0421C32.475 33.7109 33.1583 33.1502 33.639 32.4307C34.1197 31.7112 34.3763 30.8654 34.3763 30.0001C34.3763 28.8398 33.9154 27.727 33.0949 26.9065C32.2744 26.086 31.1616 25.6251 30.0013 25.6251Z" fill="url(#paint1_linear_67_12814)"/>
<defs>
<linearGradient id="paint0_linear_67_12814" x1="-11.1234" y1="30.0002" x2="71.4183" y2="30.0002" gradientUnits="userSpaceOnUse">
<stop stop-color="#F28705"/>
<stop offset="1" stop-color="#F35B58"/>
</linearGradient>
<linearGradient id="paint1_linear_67_12814" x1="15.6076" y1="30.0001" x2="44.4971" y2="30.0001" gradientUnits="userSpaceOnUse">
<stop stop-color="#F28705"/>
<stop offset="1" stop-color="#F35B58"/>
</linearGradient>
</defs>
</svg>
