<svg width="22" height="22" viewBox="0 0 22 22" fill="none" xmlns="http://www.w3.org/2000/svg">
<g clip-path="url(#clip0_15_559)">
<path d="M16.8266 3.92981C16.1115 3.92981 15.5394 4.5081 15.5394 5.21698C15.5394 5.93207 16.1177 6.50415 16.8266 6.50415C17.5417 6.50415 18.1138 5.92585 18.1138 5.21698C18.1138 4.5081 17.5355 3.92981 16.8266 3.92981Z" fill="url(#paint0_linear_15_559)"/>
<path d="M11.0932 5.58392C8.10844 5.58392 5.67712 8.01524 5.67712 11C5.67712 13.9847 8.10844 16.416 11.0932 16.416C14.0779 16.416 16.5092 13.9847 16.5092 11C16.5092 8.01524 14.0779 5.58392 11.0932 5.58392ZM11.0932 14.4697C9.17797 14.4697 7.62342 12.9152 7.62342 11C7.62342 9.08477 9.17797 7.53022 11.0932 7.53022C13.0084 7.53022 14.5629 9.08477 14.5629 11C14.5629 12.9152 13.0022 14.4697 11.0932 14.4697Z" fill="url(#paint1_linear_15_559)"/>
<path d="M15.39 22H6.60995C2.96608 22 0 19.0339 0 15.39V6.60995C0 2.96608 2.96608 0 6.60995 0H15.3963C19.0401 0 22.0062 2.96608 22.0062 6.60995V15.3963C22 19.0339 19.0339 22 15.39 22ZM6.60995 2.07066C4.11023 2.07066 2.07066 4.10401 2.07066 6.60995V15.3963C2.07066 17.896 4.10401 19.9356 6.60995 19.9356H15.3963C17.896 19.9356 19.9356 17.9022 19.9356 15.3963V6.60995C19.9356 4.11023 17.9022 2.07066 15.3963 2.07066H6.60995Z" fill="url(#paint2_linear_15_559)"/>
</g>
<defs>
<linearGradient id="paint0_linear_15_559" x1="15.0117" y1="5.21698" x2="18.6544" y2="5.21698" gradientUnits="userSpaceOnUse">
<stop stop-color="#F28705"/>
<stop offset="1" stop-color="#F35B58"/>
</linearGradient>
<linearGradient id="paint1_linear_15_559" x1="3.45654" y1="11" x2="18.784" y2="11" gradientUnits="userSpaceOnUse">
<stop stop-color="#F28705"/>
<stop offset="1" stop-color="#F35B58"/>
</linearGradient>
<linearGradient id="paint2_linear_15_559" x1="-4.51127" y1="11" x2="26.6275" y2="11" gradientUnits="userSpaceOnUse">
<stop stop-color="#F28705"/>
<stop offset="1" stop-color="#F35B58"/>
</linearGradient>
<clipPath id="clip0_15_559">
<rect width="22" height="22" fill="white"/>
</clipPath>
</defs>
</svg>
