<svg width="28" height="32" viewBox="0 0 28 32" fill="none" xmlns="http://www.w3.org/2000/svg">
<g filter="url(#filter0_d_15_515)">
<path d="M21.0752 2.92547C17.1735 -0.975157 10.826 -0.975157 6.92547 2.92547C3.02484 6.82635 3.02484 13.1734 6.92547 17.0745L13.5438 23.6928C13.6699 23.819 13.8351 23.8819 13.9998 23.8819C14.1645 23.8819 14.3299 23.819 14.4558 23.6928L21.0741 17.0745C24.9752 13.1737 24.9752 6.82659 21.0746 2.92547H21.0752ZM20.1634 16.1627L14.0004 22.3251L7.83739 16.1627C4.43969 12.7645 4.43969 7.23533 7.83739 3.83794C9.53651 2.13881 11.7684 1.28977 14.0004 1.28977C16.2323 1.28977 18.4641 2.1393 20.1634 3.83794C23.5611 7.23613 23.5611 12.7653 20.1634 16.1627ZM14.0004 5.28232C11.3988 5.28232 9.28202 7.39914 9.28202 10.0009C9.28202 12.6025 11.3988 14.7193 14.0004 14.7193C16.6019 14.7193 18.7187 12.6025 18.7187 10.0009C18.7187 7.39865 16.6019 5.28232 14.0004 5.28232ZM14.0004 13.429C12.1097 13.429 10.5723 11.8914 10.5723 10.0009C10.5723 8.11024 12.1098 6.57228 14.0004 6.57228C15.8909 6.57228 17.4285 8.1103 17.4285 10.0009C17.4285 11.8915 15.8909 13.429 14.0004 13.429Z" fill="url(#paint0_linear_15_515)"/>
</g>
<defs>
<filter id="filter0_d_15_515" x="0" y="0" width="28" height="31.882" filterUnits="userSpaceOnUse" color-interpolation-filters="sRGB">
<feFlood flood-opacity="0" result="BackgroundImageFix"/>
<feColorMatrix in="SourceAlpha" type="matrix" values="0 0 0 0 0 0 0 0 0 0 0 0 0 0 0 0 0 0 127 0" result="hardAlpha"/>
<feOffset dy="4"/>
<feGaussianBlur stdDeviation="2"/>
<feComposite in2="hardAlpha" operator="out"/>
<feColorMatrix type="matrix" values="0 0 0 0 0 0 0 0 0 0 0 0 0 0 0 0 0 0 0.25 0"/>
<feBlend mode="normal" in2="BackgroundImageFix" result="effect1_dropShadow_15_515"/>
<feBlend mode="normal" in="SourceGraphic" in2="effect1_dropShadow_15_515" result="shape"/>
</filter>
<linearGradient id="paint0_linear_15_515" x1="-0.0999997" y1="11.941" x2="28.2" y2="11.941" gradientUnits="userSpaceOnUse">
<stop stop-color="#F28705"/>
<stop offset="1" stop-color="#F35B58"/>
</linearGradient>
</defs>
</svg>
