<svg width="24" height="18" viewBox="0 0 24 18" fill="none" xmlns="http://www.w3.org/2000/svg">
<path d="M1.71383 17.1435C1.24048 17.1435 0.85667 16.7597 0.85667 16.2863C0.85667 15.813 1.24048 15.4292 1.71383 15.4292V2.63453L11.0382 8.95545C11.33 9.1531 11.6648 9.2522 11.9997 9.2522C12.3345 9.2522 12.6693 9.1531 12.9615 8.95507L22.2859 2.63415L22.287 15.4288H22.2857C22.759 15.4288 23.1428 15.8126 23.1428 16.286C23.1428 16.7593 22.759 17.1431 22.2857 17.1431C23.2311 17.1431 24 16.3742 24 15.4288V1.7143C24 1.32437 23.8642 0.968867 23.6443 0.680569C23.6439 0.679803 23.6439 0.679038 23.6436 0.678464C23.6422 0.676551 23.6403 0.675786 23.639 0.673872C23.3252 0.266914 22.8384 0 22.2859 0H1.71412C1.16157 0 0.674807 0.267095 0.361038 0.674068C0.359699 0.67579 0.357786 0.676747 0.356446 0.678469C0.356064 0.679234 0.356064 0.679999 0.355681 0.680573C0.135651 0.968906 0 1.32442 0 1.7143V15.4288C0 16.3742 0.768943 17.1431 1.71431 17.1431L1.71383 17.1435ZM11.9997 7.53649L3.41149 1.71468H20.5879L11.9997 7.53649Z" fill="url(#paint0_linear_15_530)"/>
<path d="M23.1426 16.2864C23.1426 15.813 22.7588 15.4292 22.2855 15.4292H1.71372C1.24037 15.4292 0.856567 15.813 0.856567 16.2864C0.856567 16.7597 1.24037 17.1435 1.71372 17.1435H22.2855C22.7588 17.1435 23.1426 16.7597 23.1426 16.2864Z" fill="url(#paint1_linear_15_530)"/>
<defs>
<linearGradient id="paint0_linear_15_530" x1="-4.92" y1="8.57175" x2="29.04" y2="8.57175" gradientUnits="userSpaceOnUse">
<stop stop-color="#F28705"/>
<stop offset="1" stop-color="#F35B58"/>
</linearGradient>
<linearGradient id="paint1_linear_15_530" x1="-3.71208" y1="16.2864" x2="27.8227" y2="16.2864" gradientUnits="userSpaceOnUse">
<stop stop-color="#F28705"/>
<stop offset="1" stop-color="#F35B58"/>
</linearGradient>
</defs>
</svg>
