<svg width="23" height="23" viewBox="0 0 23 23" fill="none" xmlns="http://www.w3.org/2000/svg">
<path d="M15.8291 22.9777C15.9334 22.9925 16.0392 22.9996 16.1467 22.9996C17.4799 22.9996 19.0747 21.8752 20.8931 19.6508C21.5238 18.8794 21.4668 17.7649 20.7601 17.0578L18.2485 14.5468C17.4933 13.7916 16.2648 13.7926 15.5105 14.5468L14.4306 15.6266L7.37365 8.5692L8.45352 7.48969C9.20826 6.73455 9.20826 5.50645 8.45352 4.75127L5.9419 2.24005C5.23621 1.53339 4.12169 1.476 3.34892 2.10667C0.945156 4.07213 -0.174329 5.77537 0.0219789 7.17069C0.715413 12.0915 10.9083 22.2846 15.8294 22.9776L15.8291 22.9777ZM3.93108 2.81906C4.11848 2.6659 4.34487 2.5905 4.57066 2.5905C4.83168 2.5905 5.09211 2.69162 5.2912 2.8905L7.80282 5.40152C8.1986 5.79769 8.1986 6.44283 7.80282 6.83899L6.39761 8.24364C6.31134 8.32992 6.26285 8.44668 6.26285 8.56898C6.26285 8.69108 6.31133 8.80803 6.39761 8.89431L14.105 16.6022C14.2776 16.7748 14.5829 16.7748 14.7555 16.6022L16.1607 15.1972C16.5573 14.8005 17.202 14.8014 17.5978 15.1972L20.1094 17.7082C20.4804 18.0793 20.5109 18.6642 20.1804 19.0686C18.4572 21.1763 16.9932 22.2152 15.9573 22.0666C11.403 21.4251 1.57439 11.5962 0.933038 7.04238C0.7866 6.00228 1.82334 4.54186 3.9311 2.81922L3.93108 2.81906Z" fill="url(#paint0_linear_15_521)"/>
<path d="M11.9879 0.000303986C11.7336 0.000303986 11.528 0.20611 11.528 0.460398C11.528 0.714686 11.7338 0.920492 11.9879 0.920492C17.5529 0.920492 22.0799 5.44762 22.0799 11.012C22.0799 11.2662 22.2857 11.4721 22.54 11.4721C22.7943 11.4721 22.9999 11.2662 22.9999 11.012C23.0001 4.93986 18.0599 0 11.9879 0L11.9879 0.000303986Z" fill="url(#paint1_linear_15_521)"/>
<path d="M18.5626 11.0121C18.5626 11.2664 18.7684 11.4722 19.0227 11.4722C19.2769 11.4722 19.4825 11.2664 19.4825 11.0121C19.4825 6.87915 16.1206 3.51746 11.9879 3.51746C11.7336 3.51746 11.528 3.72326 11.528 3.97735C11.528 4.23164 11.7338 4.43745 11.9879 4.43745C15.6131 4.43725 18.5626 7.38702 18.5626 11.0121Z" fill="url(#paint2_linear_15_521)"/>
<path d="M11.528 7.49456C11.528 7.74885 11.7338 7.95465 11.9879 7.95465C13.6737 7.95465 15.0453 9.32602 15.0453 11.0121C15.0453 11.2664 15.2511 11.4722 15.5054 11.4722C15.7597 11.4722 15.9653 11.2664 15.9653 11.0121C15.9653 8.81906 14.1811 7.03467 11.9879 7.03467C11.7336 7.03467 11.528 7.24027 11.528 7.49456Z" fill="url(#paint3_linear_15_521)"/>
<defs>
<linearGradient id="paint0_linear_15_521" x1="-4.37278" y1="12.3345" x2="25.81" y2="12.3345" gradientUnits="userSpaceOnUse">
<stop stop-color="#F28705"/>
<stop offset="1" stop-color="#F35B58"/>
</linearGradient>
<linearGradient id="paint1_linear_15_521" x1="9.17628" y1="5.73603" x2="25.409" y2="5.73603" gradientUnits="userSpaceOnUse">
<stop stop-color="#F28705"/>
<stop offset="1" stop-color="#F35B58"/>
</linearGradient>
<linearGradient id="paint2_linear_15_521" x1="9.89734" y1="7.49482" x2="21.153" y2="7.49482" gradientUnits="userSpaceOnUse">
<stop stop-color="#F28705"/>
<stop offset="1" stop-color="#F35B58"/>
</linearGradient>
<linearGradient id="paint3_linear_15_521" x1="10.6184" y1="9.25342" x2="16.8972" y2="9.25342" gradientUnits="userSpaceOnUse">
<stop stop-color="#F28705"/>
<stop offset="1" stop-color="#F35B58"/>
</linearGradient>
</defs>
</svg>
