<svg width="27" height="22" viewBox="0 0 27 22" fill="none" xmlns="http://www.w3.org/2000/svg">
<g clip-path="url(#clip0_15_567)">
<path d="M26.62 2.63664C25.7681 3.02217 24.8354 3.25224 23.9151 3.4077C24.3503 3.33308 24.9908 2.54959 25.2458 2.22624C25.6375 1.74122 25.9609 1.1878 26.1412 0.590852C26.1661 0.547325 26.1847 0.485143 26.135 0.447834C26.079 0.422961 26.0355 0.435397 25.992 0.46027C24.9722 1.00747 23.9151 1.40544 22.7896 1.68526C22.6963 1.71013 22.6279 1.68526 22.5657 1.62929C22.4725 1.5298 22.3854 1.43031 22.2859 1.34325C21.8133 0.939072 21.3034 0.628161 20.7314 0.39187C19.979 0.0871779 19.1582 -0.0434043 18.3498 0.00634129C17.5601 0.0560869 16.789 0.279942 16.0926 0.646816C15.3899 1.01369 14.7681 1.52358 14.2706 2.13297C13.7545 2.76722 13.3752 3.51963 13.1825 4.31556C12.9959 5.08039 13.0084 5.83902 13.1265 6.61629C13.1452 6.74687 13.1327 6.75931 13.0146 6.74687C8.61208 6.09396 4.96821 4.52076 2.00213 1.14427C1.87155 0.995035 1.80315 0.995035 1.69744 1.15671C0.404054 3.09679 1.03209 6.21833 2.64882 7.75422C2.86646 7.95942 3.0841 8.16462 3.32661 8.35117C3.23955 8.36982 2.1638 8.25168 1.19998 7.75422C1.0694 7.67338 1.00722 7.71691 0.994783 7.86615C0.982346 8.07757 1.001 8.27033 1.03209 8.49419C1.28082 10.4654 2.64261 12.2873 4.51429 12.9962C4.73814 13.0894 4.98065 13.1703 5.22316 13.2138C4.80032 13.3071 4.35883 13.3755 3.14006 13.276C2.98461 13.2449 2.92864 13.3257 2.98461 13.4687C3.89868 15.9685 5.88229 16.7147 7.36222 17.1375C7.5612 17.1748 7.76019 17.1748 7.95917 17.2183C7.94673 17.237 7.9343 17.237 7.92186 17.2556C7.43062 18.008 5.72683 18.5615 4.9309 18.8413C3.48828 19.3449 1.91508 19.575 0.391617 19.4258C0.149107 19.3885 0.0931435 19.3947 0.0309615 19.4258C-0.0374388 19.4693 0.0247433 19.5253 0.0993617 19.5875C0.410272 19.7927 0.721182 19.973 1.04453 20.1471C2.01457 20.6632 3.02192 21.0674 4.07901 21.3596C9.53859 22.8645 15.6822 21.7576 19.78 17.6909C22.9948 14.4948 24.1265 10.086 24.1265 5.67112C24.1265 5.49701 24.3317 5.40374 24.4498 5.31047C25.2893 4.68243 25.9609 3.93003 26.5889 3.09057C26.7319 2.90402 26.7319 2.73613 26.7319 2.66773C26.7319 2.6553 26.7319 2.64286 26.7319 2.64286C26.7319 2.56824 26.7257 2.58689 26.62 2.63664Z" fill="url(#paint0_linear_15_567)"/>
</g>
<defs>
<linearGradient id="paint0_linear_15_567" x1="-5.47828" y1="10.9989" x2="32.3453" y2="10.9989" gradientUnits="userSpaceOnUse">
<stop stop-color="#F28705"/>
<stop offset="1" stop-color="#F35B58"/>
</linearGradient>
<clipPath id="clip0_15_567">
<rect width="26.7321" height="22" fill="white"/>
</clipPath>
</defs>
</svg>
