<svg width="70" height="70" viewBox="0 0 70 70" fill="none" xmlns="http://www.w3.org/2000/svg">
<path d="M37.7433 64.1668H32.2308C30.9312 64.1668 29.6849 63.6506 28.766 62.7317C27.847 61.8127 27.3308 60.5664 27.3308 59.2668V56.0877C27.315 55.9004 27.2463 55.7214 27.1327 55.5717C27.0191 55.4219 26.8653 55.3075 26.6891 55.2418C26.5107 55.1275 26.3032 55.0667 26.0912 55.0667C25.8793 55.0667 25.6718 55.1275 25.4933 55.2418L23.335 57.5752C22.8822 58.0311 22.3438 58.3929 21.7506 58.6399C21.1574 58.8868 20.5212 59.0139 19.8787 59.0139C19.2362 59.0139 18.6 58.8868 18.0068 58.6399C17.4137 58.3929 16.8752 58.0311 16.4225 57.5752L12.4266 53.6668C11.9641 53.215 11.5968 52.6751 11.3463 52.079C11.0958 51.4828 10.9673 50.8426 10.9683 50.196C10.9702 48.8734 11.4943 47.605 12.4266 46.6668L14.585 44.5085C14.6892 44.3478 14.7446 44.1604 14.7446 43.9689C14.7446 43.7774 14.6892 43.59 14.585 43.4293C14.41 42.9918 14.1183 42.671 13.71 42.671H10.735C9.43273 42.6633 8.18645 42.1406 7.26835 41.217C6.35025 40.2934 5.83494 39.0441 5.83496 37.7418V32.2293C5.83496 30.9298 6.35121 29.6834 7.27014 28.7645C8.18907 27.8456 9.4354 27.3293 10.735 27.3293H13.9141C14.1014 27.3135 14.2804 27.2448 14.4301 27.1312C14.5799 27.0176 14.6943 26.8638 14.76 26.6877C14.8743 26.5092 14.9351 26.3017 14.9351 26.0897C14.9351 25.8778 14.8743 25.6703 14.76 25.4918L12.4266 23.3335C11.9707 22.8808 11.6089 22.3423 11.3619 21.7491C11.115 21.1559 10.9879 20.5198 10.9879 19.8772C10.9879 19.2347 11.115 18.5986 11.3619 18.0054C11.6089 17.4122 11.9707 16.8737 12.4266 16.421L16.335 12.4252C16.7824 11.9648 17.3174 11.5987 17.9084 11.3482C18.4995 11.0978 19.1347 10.9681 19.7766 10.9668C20.4365 10.9639 21.0905 11.0913 21.7011 11.3415C22.3117 11.5917 22.8669 11.96 23.335 12.4252L25.4933 14.5835C25.654 14.6877 25.8414 14.7431 26.0329 14.7431C26.2244 14.7431 26.4118 14.6877 26.5725 14.5835C27.01 14.4085 27.3308 14.1168 27.3308 13.7085V10.7335C27.3385 9.43126 27.8612 8.18499 28.7848 7.26689C29.7084 6.34879 30.9577 5.83347 32.26 5.8335H37.9183C39.2179 5.8335 40.4642 6.34974 41.3831 7.26867C42.3021 8.1876 42.8183 9.43394 42.8183 10.7335V13.9127C42.8341 14.1 42.9028 14.2789 43.0164 14.4287C43.13 14.5784 43.2838 14.6928 43.46 14.7585C43.6384 14.8728 43.8459 14.9336 44.0579 14.9336C44.2698 14.9336 44.4773 14.8728 44.6558 14.7585L46.6683 12.4252C47.121 11.9692 47.6595 11.6074 48.2527 11.3605C48.8459 11.1136 49.482 10.9864 50.1245 10.9864C50.7671 10.9864 51.4032 11.1136 51.9964 11.3605C52.5896 11.6074 53.1281 11.9692 53.5808 12.4252L57.5766 16.3335C58.0378 16.7863 58.4043 17.3264 58.6547 17.9223C58.9051 18.5182 59.0343 19.158 59.035 19.8043C59.049 20.4614 58.9267 21.1143 58.6757 21.7218C58.4247 22.3292 58.0505 22.878 57.5766 23.3335L55.4183 25.4918C55.3141 25.6525 55.2586 25.8399 55.2586 26.0314C55.2586 26.2229 55.3141 26.4103 55.4183 26.571C55.5933 27.0085 55.885 27.3293 56.2933 27.3293H59.4725C60.7389 27.3893 61.9335 27.935 62.808 28.853C63.6826 29.771 64.1697 30.9906 64.1683 32.2585V37.9168C64.1683 39.2164 63.6521 40.4627 62.7331 41.3817C61.8142 42.3006 60.5679 42.8168 59.2683 42.8168H56.0891C55.9018 42.8326 55.7229 42.9013 55.5731 43.0149C55.4234 43.1285 55.309 43.2824 55.2433 43.4585C55.1391 43.6192 55.0837 43.8066 55.0837 43.9981C55.0837 44.1896 55.1391 44.377 55.2433 44.5377L57.4891 46.7835C57.945 47.2362 58.3069 47.7747 58.5538 48.3679C58.8007 48.9611 58.9279 49.5972 58.9279 50.2398C58.9279 50.8823 58.8007 51.5184 58.5538 52.1116C58.3069 52.7048 57.945 53.2433 57.4891 53.696L53.6683 57.5752C53.2209 58.0355 52.6859 58.4017 52.0948 58.6521C51.5038 58.9026 50.8686 59.0322 50.2266 59.0335C48.9242 59.0164 47.6796 58.4934 46.7558 57.5752L44.51 55.4168C44.3493 55.3126 44.1619 55.2572 43.9704 55.2572C43.7789 55.2572 43.5915 55.3126 43.4308 55.4168C42.9933 55.5918 42.6725 55.8835 42.6725 56.2918V59.471C42.6124 60.7374 42.0667 61.932 41.1488 62.8066C40.2308 63.6811 39.0112 64.1683 37.7433 64.1668ZM33.1641 58.3335H36.8391V56.0877C36.8516 54.7427 37.2628 53.4316 38.0209 52.3205C38.7789 51.2094 39.8497 50.3482 41.0975 49.846C42.3504 49.2983 43.738 49.1362 45.0834 49.3804C46.4288 49.6245 47.671 50.2639 48.6516 51.2168L50.2266 52.7918L52.7933 50.2252L51.2183 48.621C50.2713 47.6552 49.6327 46.4299 49.3834 45.1005C49.1342 43.771 49.2855 42.3976 49.8183 41.1543C50.325 39.912 51.1881 38.8474 52.2989 38.0948C53.4096 37.3422 54.7183 36.9352 56.06 36.9252H58.335V33.1627H56.0891C54.7441 33.1502 53.433 32.739 52.3219 31.9809C51.2108 31.2229 50.3496 30.1521 49.8475 28.9043C49.2998 27.6514 49.1377 26.2638 49.3819 24.9184C49.626 23.573 50.2653 22.3308 51.2183 21.3502L52.7933 19.7752L50.2266 17.2085L48.6225 18.7835C47.6417 19.6794 46.4253 20.2764 45.1166 20.5042C43.8079 20.732 42.4613 20.5811 41.2355 20.0693C40.0097 19.5575 38.9556 18.7062 38.1974 17.6154C37.4392 16.5247 37.0084 15.24 36.9558 13.9127V11.6668H33.1641V13.9127C33.1517 15.2577 32.7404 16.5688 31.9824 17.6799C31.2243 18.791 30.1536 19.6522 28.9058 20.1543C27.6529 20.702 26.2652 20.8641 24.9198 20.6199C23.5744 20.3758 22.3322 19.7365 21.3516 18.7835L19.7766 17.2085L17.21 19.7752L18.785 21.3793C19.6809 22.3601 20.2779 23.5765 20.5057 24.8852C20.7335 26.1939 20.5826 27.5405 20.0708 28.7663C19.559 29.9921 18.7076 31.0462 17.6169 31.8044C16.5261 32.5626 15.2415 32.9934 13.9141 33.046H11.6683V36.721H13.9141C15.2591 36.7334 16.5702 37.1447 17.6813 37.9027C18.7924 38.6608 19.6536 39.7315 20.1558 40.9793C20.7035 42.2322 20.8656 43.6199 20.6214 44.9653C20.3773 46.3107 19.7379 47.5529 18.785 48.5335L17.21 50.1085L19.7766 52.6752L21.3808 51.1002C22.3616 50.2043 23.578 49.6073 24.8867 49.3795C26.1954 49.1517 27.5419 49.3025 28.7678 49.8143C29.9936 50.3261 31.0477 51.1775 31.8059 52.2682C32.5641 53.359 32.9949 54.6437 33.0475 55.971L33.1641 58.3335Z" fill="url(#paint0_linear_15_129)"/>
<path d="M35.0017 45.2084C32.9827 45.2084 31.009 44.6097 29.3302 43.488C27.6515 42.3663 26.343 40.772 25.5704 38.9066C24.7978 37.0413 24.5956 34.9888 24.9895 33.0085C25.3834 31.0283 26.3556 29.2094 27.7833 27.7817C29.211 26.354 31.0299 25.3818 33.0101 24.9879C34.9903 24.594 37.0429 24.7962 38.9082 25.5688C40.7736 26.3415 42.3679 27.6499 43.4896 29.3286C44.6113 31.0074 45.21 32.9811 45.21 35.0001C45.21 37.7075 44.1345 40.304 42.2201 42.2185C40.3056 44.1329 37.7091 45.2084 35.0017 45.2084ZM35.0017 30.6251C34.1364 30.6251 33.2905 30.8817 32.5711 31.3624C31.8516 31.8431 31.2908 32.5264 30.9597 33.3258C30.6286 34.1253 30.5419 35.0049 30.7107 35.8536C30.8795 36.7023 31.2962 37.4818 31.9081 38.0937C32.5199 38.7055 33.2995 39.1222 34.1482 39.291C34.9968 39.4598 35.8765 39.3732 36.6759 39.0421C37.4753 38.7109 38.1586 38.1502 38.6394 37.4307C39.1201 36.7112 39.3767 35.8654 39.3767 35.0001C39.3767 33.8398 38.9157 32.727 38.0953 31.9065C37.2748 31.086 36.162 30.6251 35.0017 30.6251Z" fill="url(#paint1_linear_15_129)"/>
<defs>
<linearGradient id="paint0_linear_15_129" x1="-6.12337" y1="35.0002" x2="76.4183" y2="35.0002" gradientUnits="userSpaceOnUse">
<stop stop-color="#F28705"/>
<stop offset="1" stop-color="#F35B58"/>
</linearGradient>
<linearGradient id="paint1_linear_15_129" x1="20.6079" y1="35.0001" x2="49.4975" y2="35.0001" gradientUnits="userSpaceOnUse">
<stop stop-color="#F28705"/>
<stop offset="1" stop-color="#F35B58"/>
</linearGradient>
</defs>
</svg>
