<svg width="35" height="35" viewBox="0 0 35 35" fill="none" xmlns="http://www.w3.org/2000/svg">
<path d="M9.06826 10.4137C8.70188 10.6306 8.23083 10.6679 7.92053 9.79687C7.81959 9.52022 7.80838 9.21739 7.87941 8.92953C8.257 7.45281 9.88327 2.25253 14.4555 0.749644C19.7268 -0.985031 24.6429 0.271104 29.2712 4.72369C29.4619 4.90687 29.5516 5.17979 29.4881 5.43775C29.4096 5.74804 29.1142 6.02469 28.1908 5.66953C28.1721 5.66206 28.1534 5.65458 28.1347 5.6471C27.7385 5.46018 22.9345 3.22828 19.9175 3.7928C19.9175 3.7928 18.194 1.63193 15.7752 2.28991C13.3414 2.95537 13.3152 5.27325 13.3152 5.27325C13.3152 5.27325 10.1861 8.26781 9.68512 9.64733C9.56923 9.9651 9.35986 10.2417 9.06826 10.4137Z" fill="url(#paint0_linear_178_171)"/>
<path d="M16.9608 8.55581C18.4536 8.55581 19.6637 7.34566 19.6637 5.85286C19.6637 4.36006 18.4536 3.1499 16.9608 3.1499C15.468 3.1499 14.2578 4.36006 14.2578 5.85286C14.2578 7.34566 15.468 8.55581 16.9608 8.55581Z" fill="url(#paint1_linear_178_171)"/>
<path d="M21.37 7.4006C21.0485 7.12021 20.8728 6.68281 21.6018 6.11829C21.8373 5.93884 22.1177 5.83042 22.4131 5.81173C23.9346 5.71453 29.3817 5.65471 32.2229 9.53904C35.4979 14.0178 35.8231 19.0798 33.0192 24.8595C32.9034 25.0988 32.6716 25.267 32.4061 25.2857C32.0846 25.3081 31.7332 25.1137 31.7818 24.123C31.7818 24.1043 31.7855 24.0819 31.7855 24.0632C31.8416 23.6258 32.4809 18.3732 31.0117 15.674C31.0117 15.674 32.537 13.3673 31.1612 11.2737C29.778 9.16145 27.5647 9.85681 27.5647 9.85681C27.5647 9.85681 23.7514 7.80437 22.2859 7.75577C21.9532 7.74081 21.6205 7.62491 21.37 7.4006Z" fill="url(#paint2_linear_178_171)"/>
<path d="M28.1443 16.1974C29.6371 16.1974 30.8472 14.9873 30.8472 13.4945C30.8472 12.0017 29.6371 10.7915 28.1443 10.7915C26.6515 10.7915 25.4413 12.0017 25.4413 13.4945C25.4413 14.9873 26.6515 16.1974 28.1443 16.1974Z" fill="url(#paint3_linear_178_171)"/>
<path d="M8.59179 23.1999C8.70769 23.6112 8.62172 24.0747 7.70205 24.1533C7.4067 24.1794 7.11135 24.1159 6.85339 23.9701C5.52248 23.2298 0.909141 20.3325 0.617536 15.5285C0.284807 9.99173 2.74849 5.55783 8.23291 2.21185C8.45722 2.07352 8.74508 2.05858 8.97687 2.18569C9.25726 2.3427 9.44792 2.69412 8.87218 3.4979C8.86097 3.51285 8.84602 3.53155 8.83481 3.5465C8.55068 3.88297 5.17104 7.95796 4.94673 11.0198C4.94673 11.0198 2.4195 12.1339 2.4382 14.6424C2.46063 17.1659 4.69626 17.7828 4.69626 17.7828C4.69626 17.7828 6.79358 21.5699 8.00112 22.4074C8.28525 22.598 8.50207 22.8747 8.59179 23.1999Z" fill="url(#paint4_linear_178_171)"/>
<path d="M6.18732 17.1095C7.68012 17.1095 8.89029 15.8994 8.89029 14.4066C8.89029 12.9138 7.68012 11.7036 6.18732 11.7036C4.69452 11.7036 3.48438 12.9138 3.48438 14.4066C3.48438 15.8994 4.69452 17.1095 6.18732 17.1095Z" fill="url(#paint5_linear_178_171)"/>
<path d="M19.7187 27.9101C20.1449 27.9475 20.5449 28.1942 20.287 29.084C20.2047 29.3681 20.0402 29.6223 19.8122 29.8093C18.642 30.785 14.2791 34.0487 9.69198 32.587C4.4057 30.9046 1.15694 27.0091 0.0129537 20.6873C-0.0356471 20.4256 0.0540637 20.1527 0.255944 19.9844C0.502687 19.7788 0.902706 19.7265 1.44479 20.5564C1.45601 20.5751 1.46723 20.5901 1.47471 20.6088C1.6878 20.9938 4.27114 25.6146 7.04886 26.9269C7.04886 26.9269 7.17971 29.6859 9.52376 30.5682C11.8865 31.4542 13.266 29.5924 13.266 29.5924C13.266 29.5924 17.5578 28.998 18.7691 28.1755C19.0495 27.9811 19.3822 27.8802 19.7187 27.9101Z" fill="url(#paint6_linear_178_171)"/>
<path d="M10.6541 29.6935C12.1469 29.6935 13.3571 28.4833 13.3571 26.9905C13.3571 25.4977 12.1469 24.2876 10.6541 24.2876C9.16132 24.2876 7.95117 25.4977 7.95117 26.9905C7.95117 28.4833 9.16132 29.6935 10.6541 29.6935Z" fill="url(#paint7_linear_178_171)"/>
<path d="M28.3619 18.7986C28.5488 18.4173 28.9227 18.1294 29.6592 18.6865C29.8947 18.8659 30.0704 19.1089 30.1676 19.3893C30.6611 20.8324 32.149 26.0738 29.1432 29.8348C25.6814 34.1714 20.8811 35.8127 14.5705 34.6238C14.3088 34.5752 14.0845 34.3958 13.9985 34.1453C13.8938 33.8425 13.9873 33.4499 14.9555 33.2405C14.9742 33.2368 14.9967 33.2331 15.0154 33.2293C15.4528 33.1695 20.6904 32.4069 22.9074 30.2834C22.9074 30.2834 25.5318 31.1507 27.1955 29.274C28.8703 27.386 27.6217 25.4308 27.6217 25.4308C27.6217 25.4308 28.6012 21.2137 28.2647 19.7856C28.1899 19.4491 28.2123 19.1015 28.3619 18.7986Z" fill="url(#paint8_linear_178_171)"/>
<path d="M24.2615 29.6403C25.7543 29.6403 26.9645 28.4301 26.9645 26.9373C26.9645 25.4445 25.7543 24.2344 24.2615 24.2344C22.7687 24.2344 21.5586 25.4445 21.5586 26.9373C21.5586 28.4301 22.7687 29.6403 24.2615 29.6403Z" fill="url(#paint9_linear_178_171)"/>
<path d="M17.4606 20.2088C18.9555 20.2088 20.1673 18.997 20.1673 17.5021C20.1673 16.0072 18.9555 14.7954 17.4606 14.7954C15.9657 14.7954 14.7539 16.0072 14.7539 17.5021C14.7539 18.997 15.9657 20.2088 17.4606 20.2088Z" fill="url(#paint10_linear_178_171)"/>
<defs>
<linearGradient id="paint0_linear_178_171" x1="7.83514" y1="5.27408" x2="29.5103" y2="5.27408" gradientUnits="userSpaceOnUse">
<stop stop-color="#F28705"/>
<stop offset="1" stop-color="#F35B58"/>
</linearGradient>
<linearGradient id="paint1_linear_178_171" x1="14.2564" y1="5.85136" x2="19.6619" y2="5.85136" gradientUnits="userSpaceOnUse">
<stop stop-color="#F28705"/>
<stop offset="1" stop-color="#F35B58"/>
</linearGradient>
<linearGradient id="paint2_linear_178_171" x1="21.09" y1="15.5363" x2="34.9208" y2="15.5363" gradientUnits="userSpaceOnUse">
<stop stop-color="#F28705"/>
<stop offset="1" stop-color="#F35B58"/>
</linearGradient>
<linearGradient id="paint3_linear_178_171" x1="25.442" y1="13.4956" x2="30.8488" y2="13.4956" gradientUnits="userSpaceOnUse">
<stop stop-color="#F28705"/>
<stop offset="1" stop-color="#F35B58"/>
</linearGradient>
<linearGradient id="paint4_linear_178_171" x1="0.59017" y1="13.1274" x2="9.25128" y2="13.1274" gradientUnits="userSpaceOnUse">
<stop stop-color="#F28705"/>
<stop offset="1" stop-color="#F35B58"/>
</linearGradient>
<linearGradient id="paint5_linear_178_171" x1="3.48411" y1="14.407" x2="8.89085" y2="14.407" gradientUnits="userSpaceOnUse">
<stop stop-color="#F28705"/>
<stop offset="1" stop-color="#F35B58"/>
</linearGradient>
<linearGradient id="paint6_linear_178_171" x1="-2.01646e-05" y1="26.406" x2="20.37" y2="26.406" gradientUnits="userSpaceOnUse">
<stop stop-color="#F28705"/>
<stop offset="1" stop-color="#F35B58"/>
</linearGradient>
<linearGradient id="paint7_linear_178_171" x1="7.95132" y1="26.9891" x2="13.3571" y2="26.9891" gradientUnits="userSpaceOnUse">
<stop stop-color="#F28705"/>
<stop offset="1" stop-color="#F35B58"/>
</linearGradient>
<linearGradient id="paint8_linear_178_171" x1="13.9678" y1="26.6855" x2="30.9738" y2="26.6855" gradientUnits="userSpaceOnUse">
<stop stop-color="#F28705"/>
<stop offset="1" stop-color="#F35B58"/>
</linearGradient>
<linearGradient id="paint9_linear_178_171" x1="21.558" y1="26.9358" x2="26.964" y2="26.9358" gradientUnits="userSpaceOnUse">
<stop stop-color="#F28705"/>
<stop offset="1" stop-color="#F35B58"/>
</linearGradient>
<linearGradient id="paint10_linear_178_171" x1="14.7539" y1="17.5008" x2="20.1679" y2="17.5008" gradientUnits="userSpaceOnUse">
<stop stop-color="#F28705"/>
<stop offset="1" stop-color="#F35B58"/>
</linearGradient>
</defs>
</svg>
